<svg aria-hidden="true" style="position: absolute; width: 0; height: 0; overflow: hidden;" version="1.1" xmlns="http://www.w3.org/2000/svg" xmlns:xlink="http://www.w3.org/1999/xlink">
<defs>
<symbol id="icon-cart" viewBox="0 0 32 32">
<path d="M0.704 4.544c-0.416-0.064-0.736-0.448-0.704-0.896 0.064-0.416 0.448-0.736 0.864-0.704l6.016 0.672c0.352 0.032 0.608 0.288 0.704 0.608l3.936 17.12h18.016c0.416 0 0.8 0.352 0.8 0.8 0 0.416-0.384 0.768-0.8 0.768h-18.656c-0.352 0-0.672-0.224-0.768-0.608l-3.968-17.184-5.44-0.576z"></path>
<path d="M7.392 6.272h23.808c0.448 0 0.8 0.352 0.8 0.8 0 0.096 0 0.16-0.032 0.256l-2.912 12.16c-0.096 0.384-0.416 0.608-0.768 0.608h-18.048c-0.384 0-0.704-0.256-0.768-0.64l-2.848-12.224c-0.096-0.416 0.16-0.832 0.576-0.928 0.064-0.032 0.128-0.032 0.192-0.032zM30.208 7.84h-21.824l2.496 10.688h16.768l2.56-10.688z"></path>
<path d="M23.072 6.976c0.064-0.448 0.448-0.736 0.864-0.704 0.448 0.064 0.736 0.448 0.704 0.896l-1.632 12.256c-0.064 0.416-0.448 0.736-0.864 0.672-0.448-0.064-0.736-0.448-0.704-0.896l1.632-12.224z"></path>
<path d="M13.952 7.136c-0.032-0.416 0.256-0.8 0.704-0.864 0.416-0.064 0.832 0.256 0.864 0.672l1.632 12.256c0.064 0.416-0.256 0.832-0.672 0.896-0.448 0.032-0.832-0.256-0.896-0.704l-1.632-12.256z"></path>
<path d="M25.792 23.872c0.704 0 1.344 0.288 1.824 0.736 0.48 0.48 0.768 1.12 0.768 1.856 0 0.704-0.288 1.344-0.768 1.824s-1.12 0.768-1.824 0.768c-0.736 0-1.376-0.288-1.856-0.768-0.448-0.48-0.736-1.12-0.736-1.824 0-0.736 0.288-1.376 0.736-1.856 0.48-0.448 1.12-0.736 1.856-0.736zM26.496 25.728c-0.192-0.16-0.448-0.288-0.704-0.288-0.288 0-0.544 0.128-0.736 0.288-0.16 0.192-0.288 0.448-0.288 0.736 0 0.256 0.128 0.512 0.288 0.704 0.192 0.192 0.448 0.288 0.736 0.288 0.256 0 0.512-0.096 0.704-0.288s0.288-0.448 0.288-0.704c0-0.288-0.096-0.544-0.288-0.736z"></path>
<path d="M14.592 23.872c0.704 0 1.344 0.288 1.824 0.736 0.448 0.48 0.768 1.12 0.768 1.856 0 0.704-0.32 1.344-0.768 1.824-0.48 0.48-1.12 0.768-1.824 0.768-0.736 0-1.376-0.288-1.856-0.768-0.448-0.48-0.736-1.12-0.736-1.824 0-0.736 0.288-1.376 0.736-1.856 0.48-0.448 1.12-0.736 1.856-0.736zM15.296 25.728c-0.192-0.16-0.448-0.288-0.704-0.288-0.288 0-0.544 0.128-0.736 0.288-0.16 0.192-0.288 0.448-0.288 0.736 0 0.256 0.128 0.512 0.288 0.704 0.192 0.192 0.448 0.288 0.736 0.288 0.256 0 0.512-0.096 0.704-0.288 0.16-0.192 0.288-0.448 0.288-0.704 0-0.288-0.096-0.544-0.288-0.736z"></path>
</symbol>
</defs>
</svg>
